# xmcd
#
# Track frame offsets:
#	150
#	13122
#	28694
#	42496
#	54457
#	68203
#	81523
#	91900
#	104478
#	115664
#	128110
#	142501
#
# Disc length: 2106 seconds
#
# Revision: 0
# Processed by: cddbd v1.5.2PL0 Copyright (c) Steve Scherf et al.
# Submitted via: dBpowerAMP V4.0
#
DISCID=9c08380c
DTITLE=Eva Eastwood - Åh, Vilken Skiva
DYEAR=2012
DGENRE=
TTITLE0=01-vill o vill inte 
TTITLE1=02-inte alls som dom 
TTITLE2=03-i väntan på dig 
TTITLE3=04-åh, peter 
TTITLE4=05-i drömmens land 
TTITLE5=06-åh, vilken skiva
TTITLE6=07-krama mig 
TTITLE7=08-det går inte över 
TTITLE8=09-bekymmer, bekymmer 
TTITLE9=10-ös med klös 
TTITLE10=11-amors pilar 
TTITLE11=12-i biografens mörker
EXTD=
EXTT0=
EXTT1=
EXTT2=
EXTT3=
EXTT4=
EXTT5=
EXTT6=
EXTT7=
EXTT8=
EXTT9=
EXTT10=
EXTT11=
PLAYORDER=
